<?xml version="1.0" encoding="utf-8"?>
<!-- Generator: Adobe Illustrator 21.0.2, SVG Export Plug-In . SVG Version: 6.00 Build 0)  -->
<svg version="1.1" id="Layer_1" xmlns="http://www.w3.org/2000/svg" xmlns:xlink="http://www.w3.org/1999/xlink" x="0px" y="0px"
	 viewBox="0 0 614 614" style="enable-background:new 0 0 614 614;" xml:space="preserve">
<style type="text/css">
	.st0{fill:#ECCF1E;}
	.st1{fill:#AFD7BC;}
	.st2{fill:#39745A;}
	.st3{fill:#282E69;}
</style>
<g>
	<path class="st0" d="M1.2,211.7c73.9-73.2,143.1-159.5,246-191.2C285.8,8.6,326.5,4.2,366.7,7.9c47.5,4.4,93,22.9,131.9,50.3
		c37.1,26.1,68.8,60.5,101.3,91.9c0.7,0.7,13.9,13.5,13.9,13.5l-47.2,48.2c-55.7-53.1-112-120-191.8-134.4
		c-43.4-7.9-89.4-3.7-130.5,12.5c-29.8,11.8-55.8,31.4-79.4,52.7c-11.9,10.8-23.4,22.1-34.7,33.6c-5.4,5.5-10.9,11-16.4,16.4
		c-2.4,2.4-16.2,18-16.2,18.2C97.6,210.7,1.2,211.7,1.2,211.7"/>
	<path class="st1" d="M0.2,401.5c23.4,23.6,46.9,47.2,70.3,70.8c25.9,26.1,51.2,53,80.7,75c73.1,54.6,175.8,75.5,263.5,48.1
		c75.3-23.6,135.6-83.1,190.5-137.4c0.5-0.5,8.2-7.7,7.6-8.3c0,0-47.2-48.2-47.2-48.2c0.1,0.1-88.9,101-175.4,130
		c-28.9,9.7-60.3,10.7-90.5,7.1c-27.6-3.3-54.7-11.5-79.1-25c-43.5-24.2-81.4-63.8-114.7-100.4c-1.1-1.2-9.2-10.7-9.3-10.7
		C96.6,402.5,0.2,401.5,0.2,401.5"/>
	<polygon class="st2" points="141.8,353.3 92.3,305.1 0.2,401.5 96.6,402.5 	"/>
	<path class="st3" d="M287.1,218.1c0,0,184.6,182.6,184.8,182.8c0.8,0.8-46,41.3-50.8,44.6c-36.1,24.9-81.4,32.4-124.1,23.5
		c-48.2-10.1-81.5-38.5-114.5-73.1c-13.5-14.2-27.1-28.3-40.6-42.5l-49.5-48.2l-91-93.4l96.4-1c18.1,14.9,33.8,34.6,50.1,51.4
		c17.1,17.6,34.1,35.2,51.1,52.9c28.5,29.8,54.8,65.1,93.1,83c26.2,12.2,52.4,7.8,78.9-1.2c-27-26.1-52.9-53.4-79.3-80.1
		c-32.8-33.1-65.5-66.3-98.3-99.4l-3.8-3.9c-4.1-4.1,35-36.3,38.4-38.7c19.3-13.9,40.9-24.1,63.9-30.3
		c41.5-11.2,88.7-0.8,125.5,20.3c29,16.6,52.7,40.9,75.3,65.2c6.4,6.9,72.5,76.6,73.2,75.9c0,0-46.2,48.9-46.2,48.9
		s-97.8-100.4-131.9-130.5C341.3,187.3,287.1,218.1,287.1,218.1"/>
</g>
</svg>
