<?xml version="1.0" encoding="utf-8"?>
<!-- Generator: Adobe Illustrator 21.0.2, SVG Export Plug-In . SVG Version: 6.00 Build 0)  -->
<svg version="1.1" id="Layer_1" xmlns="http://www.w3.org/2000/svg" xmlns:xlink="http://www.w3.org/1999/xlink" x="0px" y="0px"
	 viewBox="0 0 934 798.8" style="enable-background:new 0 0 934 798.8;" xml:space="preserve">
<style type="text/css">
	.st0{clip-path:url(#SVGID_2_);fill:#ECCF1E;}
	.st1{clip-path:url(#SVGID_2_);fill:#AFD7BC;}
	.st2{clip-path:url(#SVGID_2_);fill:#39745A;}
	.st3{clip-path:url(#SVGID_2_);fill:#282E69;}
	.st4{clip-path:url(#SVGID_2_);}
	.st5{fill:#353435;}
	.st6{display:none;clip-path:url(#SVGID_2_);}
	.st7{display:inline;fill:#353435;}
	.st8{font-family:'CaslonGraD';}
	.st9{font-size:160px;}
</style>
<g>
	<defs>
		<rect id="SVGID_1_" width="934" height="798.8"/>
	</defs>
	<clipPath id="SVGID_2_">
		<use xlink:href="#SVGID_1_"  style="overflow:visible;"/>
	</clipPath>
	<path class="st0" d="M139.9,212.2C213.8,139,283,52.7,385.9,21C424.5,9.1,465.2,4.7,505.4,8.4c47.5,4.4,93,22.9,131.9,50.3
		c37.1,26.1,68.8,60.5,101.3,91.9c0.7,0.7,13.9,13.5,13.9,13.5l-47.2,48.2c-55.8-53.1-112-120-191.8-134.4
		C470.1,69.9,424,74.1,383,90.3c-29.8,11.8-55.8,31.4-79.4,52.7c-11.9,10.8-23.4,22.1-34.7,33.6c-5.4,5.5-10.9,11-16.4,16.4
		c-2.4,2.4-16.2,18-16.2,18.2C236.3,211.2,139.9,212.2,139.9,212.2"/>
	<path class="st1" d="M138.9,402c23.4,23.6,46.9,47.2,70.3,70.8c25.9,26.1,51.2,53,80.7,75c73.1,54.6,175.8,75.5,263.5,48.1
		c75.3-23.6,135.6-83.1,190.5-137.4c0.5-0.5,8.2-7.7,7.6-8.3c0,0-47.2-48.2-47.2-48.2c0.1,0.1-88.9,101-175.4,130
		c-28.9,9.7-60.3,10.7-90.5,7.1c-27.6-3.3-54.7-11.5-79.1-25c-43.5-24.2-81.4-63.8-114.7-100.4c-1.1-1.2-9.2-10.7-9.3-10.7
		C235.3,403,138.9,402,138.9,402"/>
	<polygon class="st2" points="280.5,353.8 231,305.6 138.9,402 235.3,403 	"/>
	<path class="st3" d="M425.8,218.6c0,0,184.6,182.6,184.8,182.8c0.8,0.8-46,41.3-50.8,44.6c-36.1,24.9-81.4,32.4-124.1,23.5
		c-48.2-10.1-81.5-38.5-114.5-73.1c-13.5-14.2-27.1-28.3-40.6-42.5l-49.5-48.2l-91-93.4l96.4-1c18.1,14.9,33.8,34.6,50.1,51.4
		c17.1,17.6,34.1,35.2,51.1,52.9c28.5,29.8,54.8,65.1,93.1,83c26.2,12.2,52.4,7.8,78.9-1.2c-27-26.1-52.9-53.4-79.3-80.1
		c-32.8-33.1-65.5-66.3-98.3-99.4l-3.8-3.9c-4.1-4.1,35-36.3,38.4-38.7c19.3-13.9,40.9-24.1,63.9-30.3
		c41.5-11.2,88.7-0.8,125.5,20.3c29,16.6,52.7,40.9,75.3,65.2c6.4,6.9,72.5,76.6,73.2,75.9c0,0-46.2,48.9-46.2,48.9
		s-97.8-100.4-131.9-130.5C480,187.8,425.8,218.6,425.8,218.6"/>
	<g class="st4">
		<path class="st5" d="M91.7,669.8c-3.4-10-7.8-18.4-13.4-25.3c-7.4-9.1-15.8-13.7-24.9-13.7c-5,0-9,1.3-12,4c-3.3,2.9-5,6.7-5,11.4
			c0,5.1,1.8,9.1,5.5,12c4.1,3.2,10.7,6.5,19.8,10l14.9,5.6c8.1,3.1,14.2,6.7,18.4,10.9c5.3,5.3,7.9,11.8,7.9,19.4
			c0,6.1-1.7,12-5.1,17.6c-3.5,5.9-8.4,10.3-14.5,13.4c-5.9,3-12.6,4.5-20.1,4.5c-8.6,0-20.1-1.6-34.3-4.7c-3.9-0.9-6.6-1.3-8-1.3
			c-2.9,0-4.7,1.3-5.2,3.9h-1.6l-1.6-49.4h1.6c3.6,11.9,10.1,23.1,19.4,33.8c5.2,6,10,10.1,14.4,12.3c4.3,2.2,9,3.3,14.2,3.3
			c5.3,0,9.5-1.4,12.7-4.2c3.6-3.1,5.4-7.1,5.4-12c0-5.3-2.1-9.6-6.3-13c-3.9-3.2-9.3-6.1-16.3-8.8L42,693.4c-9.6-3.8-17-8-22-12.8
			c-4.7-4.4-7-10-7-16.9c0-9.2,3.6-17.1,10.7-23.8c7.9-7.4,18.2-11.1,30.9-11.1c5.2,0,13.3,1.2,24.4,3.7c3.2,0.7,5.6,1.1,7.2,1.1
			c2.1,0,3.3-1.2,3.8-3.6h1.6l1.8,39.9H91.7z"/>
		<path class="st5" d="M169.4,724.6c-4.6,4.2-8.1,7.1-10.5,8.7c-6.5,4.2-13.1,6.3-19.8,6.3c-4.4,0-8.4-1.2-12-3.6
			c-3.2-2.1-5.3-5.2-6.3-9.2c-0.5-2.4-0.8-6-0.8-10.7v-35.8c0-6.9-0.8-11.7-2.3-14.4c-1.5-2.7-4.8-4.2-9.9-4.5v-1.6
			c12-0.5,25.4-2,40.4-4.5v57.9c0,5.2,0.6,8.8,1.7,10.6c1.6,2.7,4.2,4.1,7.9,4.1c3.7,0,7.5-2,11.5-5.9v-41.7c0-4.6-0.2-7.7-0.5-9.4
			c-0.8-4.1-2.4-6.8-4.8-8c-1.5-0.8-3.7-1.3-6.8-1.5v-1.6c11.9-0.5,25.4-2,40.3-4.5v53c0,5.5,0.4,9.2,1.2,11.2c1.5,4.1,5,6.4,10.4,7
			v1.6c-5.2,1-9.8,2.1-13.9,3.3c-1.9,0.5-9,2.8-21.1,6.7l-4.8,1.5V724.6z"/>
		<path class="st5" d="M259.1,664.7c4.7-6.2,10.2-9.3,16.4-9.3c4.1,0,7.5,1.4,10.4,4.1c2.8,2.7,4.1,6,4.1,9.9c0,3.5-1,6.5-3,9
			c-2.4,2.9-5.5,4.4-9.3,4.4c-2.9,0-5.4-0.9-7.6-2.7c-0.8-0.7-2.4-2.6-4.6-5.5c-1.6-2.1-3.3-3.2-4.9-3.2c-2,0-3.6,1.1-4.9,3.4
			c-1.4,2.3-2.2,4.8-2.4,7.3c-0.4,3.5-0.5,8.5-0.5,15v20c0,5.4,0.2,9.2,0.6,11.6c0.6,3.1,2.2,5.1,4.8,6.2c1.6,0.6,4.1,1,7.3,1.2v1.6
			h-53.9v-1.6c5.4-0.3,8.9-1.4,10.5-3.5c1.1-1.5,1.8-4,2.1-7.3c0.2-1.7,0.2-4.4,0.2-8v-26.3c0-5.6-0.3-9.7-1-12.3
			c-0.9-3.1-2.6-5.5-5-7.1c-1.8-1.1-4.3-1.8-7.7-2l-0.2-1.6c9.1-2.1,16.2-4,21.3-5.5c3.9-1.2,10.4-3.5,19.7-6.8V680
			C253.7,673.7,256.2,668.6,259.1,664.7z"/>
		<path class="st5" d="M335.4,682c17.1-1.6,26.7-9.4,28.8-23.5h1.6v49.2h-1.6c-1.7-7.2-5.1-13.1-10.2-17.5c-3.3-2.9-7-4.8-11.2-5.7
			c-1.7-0.4-4.2-0.7-7.5-0.9v37.9c0,5.5,0.7,9.2,2,11c1.4,2,3.9,3,7.5,3c10.1,0,20-4.3,29.9-12.9c9.2-7.9,16-18.2,20.5-30.7h1.6
			l-7.3,45.5H289v-1.6c3.5-0.2,6.1-0.7,7.9-1.3c3.4-1.3,5.5-3.9,6.3-7.9c0.5-2.8,0.8-8.3,0.8-16.6v-51.8c0-8.3-0.3-13.8-0.8-16.6
			c-0.8-4-2.9-6.6-6.3-7.9c-1.8-0.7-4.4-1.1-7.9-1.4v-1.6h94.3l6.5,36.7h-1.6c-4-9.3-9.4-17.1-16.3-23.4
			c-8.5-7.7-19.2-11.5-31.9-11.5h-4.5V682z"/>
		<path class="st5" d="M484.9,720.1c4.7,6.5,7.9,10.4,9.5,12c1.8,1.7,4.8,3,8.9,3.9v1.6h-55.7v-1.6c4.7-1.4,7-3.9,7-7.6
			c0-1.5-0.6-3.4-1.7-5.6c-0.4-0.7-2.1-3.4-5.3-8l-7.9-11.6c-2.9,3.8-5.1,7-6.4,9.7c-2.4,4.6-3.6,9.2-3.6,13.8
			c0,4.4,1.7,7.5,5.2,9.4v1.6h-39.7v-1.6c4.9-1.5,9.3-3.6,13-6.3c4.8-3.5,10.8-8.7,18-15.5c4.1-3.9,8.1-8.1,12.1-12.7l-20.2-27.3
			c-4.2-5.6-7.8-9.5-10.8-11.8c-2.2-1.7-4.8-2.7-7.8-3.2v-1.6h51v1.6c-2.4,1-3.7,2.6-3.7,4.8c0,2.2,1.9,6,5.8,11.4l5.9,8.4
			c2.2-2.5,4-4.7,5.2-6.5c2.3-3.3,3.4-6.6,3.4-9.9c0-3.9-1.5-6.6-4.5-8.2v-1.6h32.8v1.6c-4.8,1.5-10.4,4.6-16.8,9.4
			c-6.6,4.9-12.9,10.6-18.8,17L484.9,720.1z"/>
		<path class="st5" d="M565.3,655.4c10.1,0,17.8,4.5,23.4,13.6c4.2,6.8,6.3,15,6.3,24.5c0,13.5-3.9,24.6-11.6,33.4
			c-7.4,8.4-16.2,12.7-26.3,12.7c-5.5,0-10.8-1.9-15.7-5.7v14.6c0,5.3,0.2,9.2,0.7,11.6c0.6,3.1,2.4,5.1,5.2,6.2
			c1.7,0.6,4.3,1,7.9,1.2v1.6h-57v-1.6c3.5-0.3,6.1-0.7,7.9-1.4c3.4-1.3,5.5-3.9,6.3-7.9c0.5-2.8,0.8-8.3,0.8-16.6v-50.8
			c0-5.6-0.3-9.7-1-12.3c-0.9-3.1-2.6-5.5-5-7.1c-1.8-1.1-4.3-1.8-7.7-2l-0.2-1.6c15.9-3.6,29.9-7.8,42.1-12.3v10.5
			C549.5,658.9,557.5,655.4,565.3,655.4z M549.1,734.7c5.5,0,9.5-3.3,12-10c2.6-7,3.9-15.6,3.9-25.7c0-10.8-1.4-19.6-4.3-26.4
			c-1.3-3.2-3.3-5.5-5.9-7.1c-1.2-0.7-2.6-1-4.1-1c-2.3,0-5.5,1.3-9.4,3.8v63C543.6,733.6,546.2,734.7,549.1,734.7z"/>
		<path class="st5" d="M647.2,664.7c4.7-6.2,10.2-9.3,16.4-9.3c4.1,0,7.5,1.4,10.4,4.1c2.8,2.7,4.1,6,4.1,9.9c0,3.5-1,6.5-3,9
			c-2.4,2.9-5.5,4.4-9.3,4.4c-2.9,0-5.4-0.9-7.6-2.7c-0.8-0.7-2.4-2.6-4.6-5.5c-1.6-2.1-3.3-3.2-4.9-3.2c-2,0-3.6,1.1-4.9,3.4
			c-1.4,2.3-2.2,4.8-2.4,7.3c-0.4,3.5-0.5,8.5-0.5,15v20c0,5.4,0.2,9.2,0.6,11.6c0.6,3.1,2.2,5.1,4.8,6.2c1.6,0.6,4.1,1,7.3,1.2v1.6
			h-53.9v-1.6c5.4-0.3,8.9-1.4,10.5-3.5c1.1-1.5,1.8-4,2.1-7.3c0.2-1.7,0.2-4.4,0.2-8v-26.3c0-5.6-0.3-9.7-1-12.3
			c-0.9-3.1-2.6-5.5-5-7.1c-1.8-1.1-4.3-1.8-7.7-2l-0.2-1.6c9.1-2.1,16.2-4,21.3-5.5c3.9-1.2,10.4-3.5,19.7-6.8V680
			C641.7,673.7,644.2,668.6,647.2,664.7z"/>
		<path class="st5" d="M709.4,689.8c0.2,19.9,9.1,29.9,26.7,29.9c6.7,0,12.4-1.6,17.1-4.9c2.9-2,5.7-5.1,8.4-9.1l1.5,0.7
			c-3.1,8.1-6.6,14.6-10.5,19.3c-7.6,9.3-17.8,14-30.6,14c-12.4,0-22.7-4.2-30.9-12.6c-7.6-7.8-11.3-17.3-11.3-28.5
			c0-13.2,4.9-24.1,14.8-32.5c8.2-7,17.7-10.5,28.7-10.5c8.2,0,15.6,2.1,22.2,6.2c6.7,4.3,11.5,10,14.5,17.2c1.1,2.8,2,6.5,2.6,10.9
			H709.4z M732.9,668.6c-1.5-7.3-4.8-10.9-10-10.9c-6,0-10.1,4.9-12.1,14.7c-0.9,4.5-1.4,9.7-1.4,15.5H734
			C734,678.8,733.6,672.3,732.9,668.6z"/>
		<path class="st5" d="M837.4,686.3h-1.6c-2.5-6-5.9-11.6-10.2-16.8c-6.6-8-13.1-12-19.5-12c-3,0-5.5,1-7.7,3
			c-2.3,2.1-3.4,4.7-3.4,7.7c0,6.4,5,11.2,15.1,14.5l10.9,3.6c7.4,2.4,13.2,5.3,17.3,8.8c4.6,3.9,6.9,9.1,6.9,15.5
			c0,5.9-1.8,11.3-5.4,16.1c-3.2,4.3-7.8,7.6-13.9,9.8c-5.3,2-10.7,3-16.3,3c-5.1,0-12.4-1.4-22-4.1c-5.1-1.5-9.6-2.9-13.5-4.4
			l-1.6-32h1.6c4,9.3,8.6,17.1,13.9,23.3c8.4,10,16.6,15,24.5,15c3.8,0,6.8-1.2,9.1-3.7c1.8-1.9,2.7-4.5,2.7-7.8
			c0-3.5-1-6.4-3.1-8.4c-2.3-2.2-6.3-4.4-11.9-6.4l-7.9-2.8c-9.3-3.3-16.2-6.9-20.9-10.7c-5.1-4.1-7.6-9.5-7.6-16.1
			c0-8,3.7-14.5,11-19.5c6.4-4.4,14.2-6.6,23.4-6.6c7.7,0,17.1,1.5,28.3,4.6L837.4,686.3z"/>
		<path class="st5" d="M919.1,686.3h-1.6c-2.5-6-5.9-11.6-10.2-16.8c-6.6-8-13.1-12-19.5-12c-3,0-5.5,1-7.7,3
			c-2.3,2.1-3.4,4.7-3.4,7.7c0,6.4,5,11.2,15.1,14.5l10.9,3.6c7.4,2.4,13.2,5.3,17.3,8.8c4.6,3.9,6.9,9.1,6.9,15.5
			c0,5.9-1.8,11.3-5.4,16.1c-3.2,4.3-7.8,7.6-13.9,9.8c-5.3,2-10.7,3-16.3,3c-5.1,0-12.4-1.4-22-4.1c-5.1-1.5-9.6-2.9-13.5-4.4
			l-1.6-32h1.6c4,9.3,8.6,17.1,13.9,23.3c8.4,10,16.6,15,24.5,15c3.8,0,6.8-1.2,9.1-3.7c1.8-1.9,2.7-4.5,2.7-7.8
			c0-3.5-1-6.4-3.1-8.4c-2.3-2.2-6.3-4.4-11.9-6.4l-7.9-2.8c-9.3-3.3-16.2-6.9-20.9-10.7c-5.1-4.1-7.6-9.5-7.6-16.1
			c0-8,3.7-14.5,11-19.5c6.4-4.4,14.2-6.6,23.4-6.6c7.7,0,17.1,1.5,28.3,4.6L919.1,686.3z"/>
	</g>
	<g class="st6">
		<text transform="matrix(1 0 0 1 8.3523 737.5045)" class="st7 st8 st9">SurExpress</text>
	</g>
</g>
</svg>
